<svg width="440" height="413" viewBox="0 0 440 413" fill="none" xmlns="http://www.w3.org/2000/svg">
<path d="M5 398V65.5C5 59.9772 9.47716 55.5 15 55.5H259C264.523 55.5 269 59.9771 269 65.5V398C269 403.523 264.523 408 259 408H15C9.47715 408 5 403.523 5 398Z" stroke="black" stroke-width="10"/>
<path d="M82.7031 281.996L72.7188 284.879L67.5859 329.703L44.8398 294.652L41.2539 321.863L51.0273 327.066L27.9297 328.789L37.1406 321.863L37.8086 286.672L27.2969 282.98L50.2539 279.184L63.9297 314.516L68.1133 285.793L60.4141 278.516L82.7031 281.996ZM80.207 311.352C80.207 308.727 80.6172 306.301 81.4375 304.074C82.2812 301.824 83.4414 299.879 84.918 298.238C86.418 296.598 88.1875 295.32 90.2266 294.406C92.2891 293.469 94.5391 293 96.9766 293C99.3438 293 101.512 293.445 103.48 294.336C105.449 295.203 107.16 296.434 108.613 298.027C110.066 299.621 111.227 301.531 112.094 303.758C112.961 305.984 113.477 308.445 113.641 311.141C113.805 314.023 113.5 316.637 112.727 318.98C111.977 321.301 110.863 323.281 109.387 324.922C107.91 326.539 106.141 327.793 104.078 328.684C102.039 329.574 99.8242 330.02 97.4336 330.02C95.1367 330.02 92.9453 329.609 90.8594 328.789C88.7969 327.945 86.9688 326.727 85.375 325.133C83.8047 323.539 82.5508 321.594 81.6133 319.297C80.6758 316.977 80.207 314.328 80.207 311.352ZM88.8555 311.949C88.8555 314.012 89.1484 315.875 89.7344 317.539C90.3203 319.203 91.1055 320.621 92.0898 321.793C93.0742 322.941 94.2109 323.832 95.5 324.465C96.7891 325.098 98.1484 325.414 99.5781 325.414C101.008 325.414 102.344 325.109 103.586 324.5C104.828 323.867 105.906 322.988 106.82 321.863C107.734 320.715 108.449 319.344 108.965 317.75C109.48 316.156 109.738 314.387 109.738 312.441C109.738 310.52 109.48 308.715 108.965 307.027C108.449 305.316 107.723 303.828 106.785 302.562C105.871 301.297 104.781 300.301 103.516 299.574C102.25 298.848 100.867 298.484 99.3672 298.484C98.0312 298.484 96.7305 298.789 95.4648 299.398C94.2227 300.008 93.1094 300.898 92.125 302.07C91.1406 303.219 90.3438 304.625 89.7344 306.289C89.1484 307.953 88.8555 309.84 88.8555 311.949ZM120.145 313.602C120.145 311.398 120.367 309.207 120.812 307.027C121.281 304.824 121.785 302.809 122.324 300.98L116.242 301.367L133.398 282.629C132.039 286.918 130.938 290.785 130.094 294.23L143.77 295.391L141.977 299.609L128.723 300.559C128.395 302.27 128.137 303.793 127.949 305.129C127.785 306.441 127.645 307.555 127.527 308.469C127.41 309.547 127.328 310.484 127.281 311.281C127.281 313.625 127.422 315.734 127.703 317.609C127.984 319.484 128.418 321.09 129.004 322.426C129.613 323.738 130.375 324.758 131.289 325.484C132.227 326.188 133.34 326.539 134.629 326.539C135.824 326.539 136.82 326.305 137.617 325.836C138.438 325.344 139.094 324.723 139.586 323.973C140.078 323.199 140.43 322.344 140.641 321.406C140.852 320.445 140.957 319.496 140.957 318.559C140.957 317.691 140.887 316.848 140.746 316.027C141.754 316.543 142.516 317.375 143.031 318.523C143.57 319.648 143.84 320.879 143.84 322.215C143.84 323.598 143.605 324.816 143.137 325.871C142.691 326.926 142.07 327.816 141.273 328.543C140.477 329.246 139.539 329.785 138.461 330.16C137.383 330.535 136.223 330.723 134.98 330.723C134.23 330.723 133.34 330.641 132.309 330.477C131.301 330.312 130.246 330.008 129.145 329.562C128.043 329.141 126.953 328.531 125.875 327.734C124.797 326.938 123.836 325.906 122.992 324.641C122.148 323.375 121.457 321.84 120.918 320.035C120.402 318.207 120.145 316.062 120.145 313.602ZM154.316 316.098C154.621 317.41 155.031 318.699 155.547 319.965C156.062 321.207 156.695 322.32 157.445 323.305C158.195 324.289 159.062 325.086 160.047 325.695C161.031 326.305 162.145 326.609 163.387 326.609C165.027 326.609 166.457 326.27 167.676 325.59C168.895 324.91 169.891 324.055 170.664 323.023C171.438 321.969 171.977 320.82 172.281 319.578C172.586 318.312 172.645 317.105 172.457 315.957C173.113 316.215 173.652 316.555 174.074 316.977C174.52 317.398 174.859 317.867 175.094 318.383C175.352 318.875 175.527 319.391 175.621 319.93C175.715 320.445 175.762 320.949 175.762 321.441C175.762 322.566 175.434 323.656 174.777 324.711C174.121 325.742 173.195 326.668 172 327.488C170.828 328.285 169.434 328.93 167.816 329.422C166.199 329.914 164.43 330.16 162.508 330.16C159.93 330.16 157.621 329.656 155.582 328.648C153.566 327.641 151.855 326.281 150.449 324.57C149.043 322.836 147.965 320.809 147.215 318.488C146.465 316.168 146.09 313.695 146.09 311.07C146.09 308.398 146.465 305.938 147.215 303.688C147.965 301.414 149.066 299.48 150.52 297.887C151.996 296.293 153.801 295.086 155.934 294.266C158.066 293.445 160.527 293.117 163.316 293.281C165.238 293.422 167.008 293.973 168.625 294.934C170.242 295.895 171.648 297.137 172.844 298.66C174.062 300.16 175.035 301.883 175.762 303.828C176.512 305.773 176.969 307.801 177.133 309.91L154.316 316.098ZM153.648 310.438C153.648 310.766 153.648 311.094 153.648 311.422C153.648 311.727 153.672 312.043 153.719 312.371L169.152 306.746C168.637 305.059 168.051 303.617 167.395 302.422C166.762 301.203 166.094 300.207 165.391 299.434C164.688 298.66 163.973 298.098 163.246 297.746C162.543 297.371 161.863 297.184 161.207 297.184C160.223 297.184 159.355 297.371 158.605 297.746C157.855 298.121 157.199 298.637 156.637 299.293C156.098 299.926 155.629 300.676 155.23 301.543C154.855 302.41 154.551 303.336 154.316 304.32C154.082 305.305 153.906 306.324 153.789 307.379C153.695 308.41 153.648 309.43 153.648 310.438ZM189.613 318.559L185.43 318.348L185.605 280.027L194.887 281.188L189.613 318.559ZM192.707 326.996C192.707 327.746 192.508 328.391 192.109 328.93C191.734 329.469 191.266 329.902 190.703 330.23C190.164 330.582 189.59 330.828 188.98 330.969C188.371 331.133 187.844 331.215 187.398 331.215C186.906 331.215 186.344 331.133 185.711 330.969C185.102 330.828 184.527 330.582 183.988 330.23C183.449 329.902 182.992 329.469 182.617 328.93C182.242 328.391 182.055 327.746 182.055 326.996C182.055 326.199 182.242 325.52 182.617 324.957C182.992 324.395 183.449 323.938 183.988 323.586C184.527 323.211 185.102 322.941 185.711 322.777C186.344 322.613 186.906 322.531 187.398 322.531C187.844 322.531 188.371 322.613 188.98 322.777C189.59 322.941 190.164 323.211 190.703 323.586C191.266 323.938 191.734 324.395 192.109 324.957C192.508 325.52 192.707 326.199 192.707 326.996Z" fill="#FF3C3C"/>
<path d="M88.4688 197.391C87.625 201.672 86.5469 205.203 85.2344 207.984C83.9219 210.734 82.5938 212.906 81.25 214.5C79.9062 216.094 78.6406 217.203 77.4531 217.828C76.2969 218.453 75.4219 218.766 74.8281 218.766C73.8906 218.766 72.6875 218.359 71.2188 217.547C69.75 216.734 68.125 215.688 66.3438 214.406C64.5938 213.125 62.7656 211.688 60.8594 210.094C58.9844 208.469 57.1719 206.859 55.4219 205.266C53.6719 203.672 52.0625 202.172 50.5938 200.766C49.125 199.359 47.9375 198.203 47.0312 197.297L47.4062 208.875L57.2969 214.359L27.5312 216.469L37.5156 207.281L39.25 160.125L27.0625 154.266C33.1562 153.922 38.3281 153.672 42.5781 153.516C46.8281 153.328 50.3438 153.203 53.125 153.141C55.9062 153.078 58.0469 153.047 59.5469 153.047C61.0469 153.047 62.1094 153.047 62.7344 153.047C64.0781 153.047 65.5312 153.172 67.0938 153.422C68.6875 153.641 70.2656 154.031 71.8281 154.594C73.3906 155.125 74.9062 155.812 76.375 156.656C77.8438 157.5 79.1406 158.531 80.2656 159.75C81.3906 160.969 82.2812 162.391 82.9375 164.016C83.625 165.609 83.9688 167.422 83.9688 169.453C83.9688 169.922 83.9062 170.578 83.7812 171.422C83.6875 172.234 83.4688 173.188 83.125 174.281C82.7812 175.344 82.2656 176.484 81.5781 177.703C80.8906 178.891 79.9531 180.094 78.7656 181.312C77.6094 182.5 76.1719 183.656 74.4531 184.781C72.7344 185.906 70.6562 186.906 68.2188 187.781C65.8125 188.656 63 189.375 59.7812 189.938C56.5938 190.469 52.9375 190.766 48.8125 190.828C50.8438 192.359 53.0469 194 55.4219 195.75C57.7969 197.469 60.2031 199.062 62.6406 200.531C65.0781 201.969 67.4688 203.172 69.8125 204.141C72.1562 205.078 74.3438 205.547 76.375 205.547C77.3438 205.547 78.375 205.438 79.4688 205.219C80.5938 205 81.6875 204.594 82.75 204C83.8438 203.375 84.875 202.547 85.8438 201.516C86.8438 200.453 87.7188 199.078 88.4688 197.391ZM70.4219 171.656C70.4219 170.688 70.3438 169.719 70.1875 168.75C70.0312 167.781 69.7031 166.859 69.2031 165.984C68.7031 165.109 67.9844 164.281 67.0469 163.5C66.1094 162.719 64.8438 162.047 63.25 161.484C61.6875 160.922 59.75 160.484 57.4375 160.172C55.125 159.828 52.3594 159.656 49.1406 159.656C48.6406 159.656 48.1562 159.656 47.6875 159.656C47.2188 159.656 46.7344 159.688 46.2344 159.75L46.7031 184.781C48.6719 184.75 50.625 184.594 52.5625 184.312C54.5 184 56.3438 183.578 58.0938 183.047C59.8438 182.516 61.4688 181.875 62.9688 181.125C64.5 180.375 65.8125 179.531 66.9062 178.594C68 177.625 68.8594 176.562 69.4844 175.406C70.1094 174.25 70.4219 173 70.4219 171.656ZM139.656 214.266L86.8281 216.375L98.5469 204.375L101.828 161.203L87.7188 154.266L137.922 150.703L138.766 172.688L130.047 157.078L108.625 160.5L109.328 182.672L114.203 182.016L123.906 169.172L124.562 198.703L116.125 186.609L109.422 187.594L109.984 206.953L130.984 208.875L138.859 189.234L139.656 214.266ZM156.531 216.375C151.625 216.375 146.641 216 141.578 215.25L154.328 209.391L158.641 160.969L144.156 154.453C147.188 153.766 150.266 153.234 153.391 152.859C156.516 152.453 159.391 152.156 162.016 151.969C165.047 151.75 168 151.625 170.875 151.594C173 151.594 175.188 151.844 177.438 152.344C179.719 152.844 181.938 153.641 184.094 154.734C186.25 155.797 188.281 157.172 190.188 158.859C192.094 160.547 193.75 162.562 195.156 164.906C196.594 167.25 197.734 169.953 198.578 173.016C199.422 176.047 199.844 179.469 199.844 183.281C199.844 187.5 199.234 191.25 198.016 194.531C196.797 197.812 195.125 200.672 193 203.109C190.906 205.547 188.453 207.625 185.641 209.344C182.828 211.031 179.812 212.391 176.594 213.422C173.375 214.453 170.047 215.203 166.609 215.672C163.203 216.141 159.844 216.375 156.531 216.375ZM188.922 181.453C188.922 179.859 188.797 178.156 188.547 176.344C188.328 174.531 187.938 172.734 187.375 170.953C186.812 169.172 186.062 167.469 185.125 165.844C184.188 164.188 183.016 162.734 181.609 161.484C180.234 160.234 178.594 159.234 176.688 158.484C174.781 157.734 172.578 157.359 170.078 157.359C168.766 157.359 167.391 157.453 165.953 157.641V210.141C170.203 209.547 173.781 208.438 176.688 206.812C179.625 205.188 182 203.141 183.812 200.672C185.625 198.172 186.922 195.312 187.703 192.094C188.516 188.844 188.922 185.297 188.922 181.453Z" fill="#FF3C3C"/>
<path d="M219.5 238L365 40.5L408.5 72.5L263 271.5L219.5 238Z" fill="#FF3C3C" stroke="black" stroke-width="10"/>
<path d="M215.895 245L198 311L258 275.462L215.895 245Z" stroke="black" stroke-width="10"/>
<path d="M389.785 8.99077L367.169 38.0686C363.767 42.4428 364.57 48.7496 368.961 52.1308L396.447 73.2981C400.873 76.7068 407.234 75.828 410.57 71.3467L432.224 42.2582C435.445 37.9322 434.655 31.8319 430.439 28.469L403.914 7.31242C399.559 3.83874 393.205 4.5935 389.785 8.99077Z" stroke="black" stroke-width="10"/>
<path d="M50 30V79" stroke="black" stroke-width="10"/>
<path d="M87 30V79" stroke="black" stroke-width="10"/>
<path d="M126 30V79" stroke="black" stroke-width="10"/>
<path d="M161 30V79" stroke="black" stroke-width="10"/>
<path d="M198 30V79" stroke="black" stroke-width="10"/>
<path d="M233 30V79" stroke="black" stroke-width="10"/>
</svg>